<mxfile host="app.diagrams.net" modified="2020-10-22T10:52:23.842Z" agent="5.0 (Windows NT 10.0; Win64; x64) AppleWebKit/537.36 (KHTML, like Gecko) Chrome/86.0.4240.75 Safari/537.36" etag="ZYV-ThmBA0Q--wETnnF8" version="13.8.1" type="github">
  <diagram id="G2MR8Ks_XhmRX7JVYp-d" name="Page-1">
    <mxGraphModel dx="1235" dy="1225" grid="1" gridSize="10" guides="1" tooltips="1" connect="1" arrows="1" fold="1" page="1" pageScale="1" pageWidth="583" pageHeight="827" math="0" shadow="0">
      <root>
        <mxCell id="0" />
        <mxCell id="1" parent="0" />
        <mxCell id="MaGBBsOUIaXNojY9zalU-138" value="" style="edgeStyle=orthogonalEdgeStyle;rounded=1;sketch=0;jumpStyle=arc;jumpSize=15;orthogonalLoop=1;jettySize=auto;shadow=0;strokeColor=#000000;fontSize=5;html=1;" edge="1" parent="1" source="MaGBBsOUIaXNojY9zalU-88" target="MaGBBsOUIaXNojY9zalU-96">
          <mxGeometry relative="1" as="geometry">
            <Array as="points">
              <mxPoint x="308" y="199" />
              <mxPoint x="271" y="199" />
            </Array>
          </mxGeometry>
        </mxCell>
        <mxCell id="MaGBBsOUIaXNojY9zalU-139" style="edgeStyle=orthogonalEdgeStyle;rounded=1;sketch=0;jumpStyle=arc;jumpSize=15;orthogonalLoop=1;jettySize=auto;html=1;shadow=0;strokeColor=#000000;fontSize=5;" edge="1" parent="1" source="MaGBBsOUIaXNojY9zalU-88" target="MaGBBsOUIaXNojY9zalU-97">
          <mxGeometry relative="1" as="geometry" />
        </mxCell>
        <mxCell id="MaGBBsOUIaXNojY9zalU-140" style="edgeStyle=orthogonalEdgeStyle;rounded=1;sketch=0;jumpStyle=arc;jumpSize=15;orthogonalLoop=1;jettySize=auto;html=1;shadow=0;strokeColor=#000000;fontSize=5;" edge="1" parent="1" source="MaGBBsOUIaXNojY9zalU-88" target="MaGBBsOUIaXNojY9zalU-104">
          <mxGeometry relative="1" as="geometry" />
        </mxCell>
        <mxCell id="MaGBBsOUIaXNojY9zalU-141" style="edgeStyle=orthogonalEdgeStyle;curved=1;sketch=0;jumpStyle=arc;jumpSize=15;orthogonalLoop=1;jettySize=auto;html=1;shadow=0;strokeColor=#000000;fontSize=5;" edge="1" parent="1" target="MaGBBsOUIaXNojY9zalU-105">
          <mxGeometry relative="1" as="geometry">
            <mxPoint x="340" y="100" as="sourcePoint" />
            <Array as="points">
              <mxPoint x="340" y="95" />
              <mxPoint x="392" y="95" />
              <mxPoint x="392" y="93" />
              <mxPoint x="500" y="93" />
            </Array>
          </mxGeometry>
        </mxCell>
        <mxCell id="MaGBBsOUIaXNojY9zalU-151" style="edgeStyle=orthogonalEdgeStyle;curved=1;sketch=0;jumpStyle=arc;jumpSize=15;orthogonalLoop=1;jettySize=auto;html=1;shadow=0;fontSize=5;fontColor=#02020A;strokeColor=#02020A;" edge="1" parent="1" source="MaGBBsOUIaXNojY9zalU-88" target="MaGBBsOUIaXNojY9zalU-149">
          <mxGeometry relative="1" as="geometry">
            <Array as="points">
              <mxPoint x="434" y="80" />
            </Array>
          </mxGeometry>
        </mxCell>
        <mxCell id="MaGBBsOUIaXNojY9zalU-88" value="" style="verticalLabelPosition=bottom;html=1;verticalAlign=top;strokeWidth=1;align=center;outlineConnect=0;dashed=0;outlineConnect=0;shape=mxgraph.aws3d.elasticMapReduce;fillColor=#ECECEC;strokeColor=#5E5E5E;aspect=fixed;sketch=0;fontSize=5;" vertex="1" parent="1">
          <mxGeometry x="320.4" y="92.56" width="25.05" height="27.08" as="geometry" />
        </mxCell>
        <mxCell id="MaGBBsOUIaXNojY9zalU-112" style="edgeStyle=orthogonalEdgeStyle;rounded=1;sketch=0;jumpStyle=arc;jumpSize=15;orthogonalLoop=1;jettySize=auto;html=1;entryX=0.279;entryY=0.317;entryDx=0;entryDy=0;entryPerimeter=0;shadow=0;strokeColor=#000000;fontSize=5;" edge="1" parent="1" source="MaGBBsOUIaXNojY9zalU-96" target="MaGBBsOUIaXNojY9zalU-98">
          <mxGeometry relative="1" as="geometry" />
        </mxCell>
        <mxCell id="MaGBBsOUIaXNojY9zalU-113" style="edgeStyle=orthogonalEdgeStyle;rounded=1;sketch=0;jumpStyle=arc;jumpSize=15;orthogonalLoop=1;jettySize=auto;html=1;shadow=0;strokeColor=#000000;fontSize=5;" edge="1" parent="1" source="MaGBBsOUIaXNojY9zalU-96" target="MaGBBsOUIaXNojY9zalU-100">
          <mxGeometry relative="1" as="geometry" />
        </mxCell>
        <mxCell id="MaGBBsOUIaXNojY9zalU-124" style="edgeStyle=orthogonalEdgeStyle;curved=1;sketch=0;jumpStyle=arc;jumpSize=15;orthogonalLoop=1;jettySize=auto;html=1;shadow=0;strokeColor=#000000;fontSize=5;" edge="1" parent="1" source="MaGBBsOUIaXNojY9zalU-96" target="MaGBBsOUIaXNojY9zalU-99">
          <mxGeometry relative="1" as="geometry" />
        </mxCell>
        <mxCell id="MaGBBsOUIaXNojY9zalU-96" value="" style="verticalLabelPosition=bottom;html=1;verticalAlign=top;strokeWidth=1;align=center;outlineConnect=0;dashed=0;outlineConnect=0;shape=mxgraph.aws3d.ebs2;fillColor=#ECECEC;strokeColor=#5E5E5E;aspect=fixed;sketch=0;fontSize=5;" vertex="1" parent="1">
          <mxGeometry x="246.02" y="242.18" width="49.98" height="32.6" as="geometry" />
        </mxCell>
        <mxCell id="MaGBBsOUIaXNojY9zalU-115" style="edgeStyle=orthogonalEdgeStyle;rounded=1;sketch=0;jumpStyle=arc;jumpSize=15;orthogonalLoop=1;jettySize=auto;html=1;shadow=0;strokeColor=#000000;fontSize=5;" edge="1" parent="1" source="MaGBBsOUIaXNojY9zalU-97" target="MaGBBsOUIaXNojY9zalU-101">
          <mxGeometry relative="1" as="geometry" />
        </mxCell>
        <mxCell id="MaGBBsOUIaXNojY9zalU-116" style="edgeStyle=orthogonalEdgeStyle;rounded=1;sketch=0;jumpStyle=arc;jumpSize=15;orthogonalLoop=1;jettySize=auto;html=1;shadow=0;strokeColor=#000000;fontSize=5;" edge="1" parent="1" source="MaGBBsOUIaXNojY9zalU-97" target="MaGBBsOUIaXNojY9zalU-102">
          <mxGeometry relative="1" as="geometry">
            <mxPoint x="380" y="250" as="targetPoint" />
          </mxGeometry>
        </mxCell>
        <mxCell id="MaGBBsOUIaXNojY9zalU-117" style="edgeStyle=orthogonalEdgeStyle;rounded=1;sketch=0;jumpStyle=arc;jumpSize=15;orthogonalLoop=1;jettySize=auto;html=1;shadow=0;strokeColor=#000000;fontSize=5;" edge="1" parent="1" source="MaGBBsOUIaXNojY9zalU-97" target="MaGBBsOUIaXNojY9zalU-103">
          <mxGeometry relative="1" as="geometry" />
        </mxCell>
        <mxCell id="MaGBBsOUIaXNojY9zalU-97" value="" style="verticalLabelPosition=bottom;html=1;verticalAlign=top;strokeWidth=1;align=center;outlineConnect=0;dashed=0;outlineConnect=0;shape=mxgraph.aws3d.ebs2;fillColor=#ECECEC;strokeColor=#5E5E5E;aspect=fixed;sketch=0;fontSize=5;" vertex="1" parent="1">
          <mxGeometry x="317" y="195.92" width="52.26" height="34.08" as="geometry" />
        </mxCell>
        <mxCell id="MaGBBsOUIaXNojY9zalU-98" value="" style="verticalLabelPosition=bottom;html=1;verticalAlign=top;strokeWidth=1;align=center;outlineConnect=0;dashed=0;outlineConnect=0;shape=mxgraph.aws3d.ebs2;fillColor=#ECECEC;strokeColor=#5E5E5E;aspect=fixed;sketch=0;fontSize=5;" vertex="1" parent="1">
          <mxGeometry x="277.85" y="325.92" width="18.15" height="11.84" as="geometry" />
        </mxCell>
        <mxCell id="MaGBBsOUIaXNojY9zalU-99" value="" style="verticalLabelPosition=bottom;html=1;verticalAlign=top;strokeWidth=1;align=center;outlineConnect=0;dashed=0;outlineConnect=0;shape=mxgraph.aws3d.ebs2;fillColor=#ECECEC;strokeColor=#5E5E5E;aspect=fixed;sketch=0;fontSize=5;" vertex="1" parent="1">
          <mxGeometry x="296" y="310" width="24.4" height="15.92" as="geometry" />
        </mxCell>
        <mxCell id="MaGBBsOUIaXNojY9zalU-100" value="" style="verticalLabelPosition=bottom;html=1;verticalAlign=top;strokeWidth=1;align=center;outlineConnect=0;dashed=0;outlineConnect=0;shape=mxgraph.aws3d.ebs2;fillColor=#ECECEC;strokeColor=#5E5E5E;aspect=fixed;sketch=0;fontSize=5;" vertex="1" parent="1">
          <mxGeometry x="316.4" y="294.08" width="24.4" height="15.92" as="geometry" />
        </mxCell>
        <mxCell id="MaGBBsOUIaXNojY9zalU-101" value="" style="verticalLabelPosition=bottom;html=1;verticalAlign=top;strokeWidth=1;align=center;outlineConnect=0;dashed=0;outlineConnect=0;shape=mxgraph.aws3d.ebs2;fillColor=#ECECEC;strokeColor=#5E5E5E;aspect=fixed;sketch=0;fontSize=5;" vertex="1" parent="1">
          <mxGeometry x="350" y="258.86" width="24.4" height="15.92" as="geometry" />
        </mxCell>
        <mxCell id="MaGBBsOUIaXNojY9zalU-102" value="" style="verticalLabelPosition=bottom;html=1;verticalAlign=top;strokeWidth=1;align=center;outlineConnect=0;dashed=0;outlineConnect=0;shape=mxgraph.aws3d.ebs2;fillColor=#ECECEC;strokeColor=#5E5E5E;aspect=fixed;sketch=0;fontSize=5;" vertex="1" parent="1">
          <mxGeometry x="374.4" y="251.49" width="24.4" height="15.92" as="geometry" />
        </mxCell>
        <mxCell id="MaGBBsOUIaXNojY9zalU-103" value="" style="verticalLabelPosition=bottom;html=1;verticalAlign=top;strokeWidth=1;align=center;outlineConnect=0;dashed=0;outlineConnect=0;shape=mxgraph.aws3d.ebs2;fillColor=#ECECEC;strokeColor=#5E5E5E;aspect=fixed;sketch=0;fontSize=5;" vertex="1" parent="1">
          <mxGeometry x="401.59999999999997" y="242.94000000000003" width="24.4" height="15.92" as="geometry" />
        </mxCell>
        <mxCell id="MaGBBsOUIaXNojY9zalU-118" style="edgeStyle=orthogonalEdgeStyle;sketch=0;jumpStyle=arc;jumpSize=15;orthogonalLoop=1;jettySize=auto;html=1;shadow=0;strokeColor=#000000;fontSize=5;curved=1;" edge="1" parent="1" source="MaGBBsOUIaXNojY9zalU-104" target="MaGBBsOUIaXNojY9zalU-106">
          <mxGeometry relative="1" as="geometry" />
        </mxCell>
        <mxCell id="MaGBBsOUIaXNojY9zalU-119" style="edgeStyle=orthogonalEdgeStyle;curved=1;sketch=0;jumpStyle=arc;jumpSize=15;orthogonalLoop=1;jettySize=auto;html=1;shadow=0;strokeColor=#000000;fontSize=5;" edge="1" parent="1" source="MaGBBsOUIaXNojY9zalU-104" target="MaGBBsOUIaXNojY9zalU-108">
          <mxGeometry relative="1" as="geometry" />
        </mxCell>
        <mxCell id="MaGBBsOUIaXNojY9zalU-120" style="edgeStyle=orthogonalEdgeStyle;curved=1;sketch=0;jumpStyle=arc;jumpSize=15;orthogonalLoop=1;jettySize=auto;html=1;shadow=0;strokeColor=#000000;fontSize=5;" edge="1" parent="1" source="MaGBBsOUIaXNojY9zalU-104" target="MaGBBsOUIaXNojY9zalU-107">
          <mxGeometry relative="1" as="geometry" />
        </mxCell>
        <mxCell id="MaGBBsOUIaXNojY9zalU-104" value="" style="verticalLabelPosition=bottom;html=1;verticalAlign=top;strokeWidth=1;align=center;outlineConnect=0;dashed=0;outlineConnect=0;shape=mxgraph.aws3d.ebs2;fillColor=#ECECEC;strokeColor=#5E5E5E;aspect=fixed;sketch=0;fontSize=5;" vertex="1" parent="1">
          <mxGeometry x="398.17" y="142.3" width="54.4" height="35.48" as="geometry" />
        </mxCell>
        <mxCell id="MaGBBsOUIaXNojY9zalU-121" style="edgeStyle=orthogonalEdgeStyle;sketch=0;jumpStyle=arc;jumpSize=15;orthogonalLoop=1;jettySize=auto;html=1;shadow=0;strokeColor=#000000;fontSize=5;curved=1;" edge="1" parent="1" source="MaGBBsOUIaXNojY9zalU-105" target="MaGBBsOUIaXNojY9zalU-109">
          <mxGeometry relative="1" as="geometry" />
        </mxCell>
        <mxCell id="MaGBBsOUIaXNojY9zalU-122" style="edgeStyle=orthogonalEdgeStyle;curved=1;sketch=0;jumpStyle=arc;jumpSize=15;orthogonalLoop=1;jettySize=auto;html=1;shadow=0;strokeColor=#000000;fontSize=5;" edge="1" parent="1" source="MaGBBsOUIaXNojY9zalU-105" target="MaGBBsOUIaXNojY9zalU-110">
          <mxGeometry relative="1" as="geometry">
            <Array as="points">
              <mxPoint x="560" y="112" />
              <mxPoint x="560" y="152" />
              <mxPoint x="547" y="152" />
            </Array>
          </mxGeometry>
        </mxCell>
        <mxCell id="MaGBBsOUIaXNojY9zalU-123" style="edgeStyle=orthogonalEdgeStyle;curved=1;sketch=0;jumpStyle=arc;jumpSize=15;orthogonalLoop=1;jettySize=auto;html=1;shadow=0;strokeColor=#000000;fontSize=5;" edge="1" parent="1" source="MaGBBsOUIaXNojY9zalU-105" target="MaGBBsOUIaXNojY9zalU-111">
          <mxGeometry relative="1" as="geometry" />
        </mxCell>
        <mxCell id="MaGBBsOUIaXNojY9zalU-105" value="" style="verticalLabelPosition=bottom;html=1;verticalAlign=top;strokeWidth=1;align=center;outlineConnect=0;dashed=0;outlineConnect=0;shape=mxgraph.aws3d.ebs2;fillColor=#ECECEC;strokeColor=#5E5E5E;aspect=fixed;sketch=0;fontSize=5;" vertex="1" parent="1">
          <mxGeometry x="486.85" y="92.56" width="60.93" height="39.74" as="geometry" />
        </mxCell>
        <mxCell id="MaGBBsOUIaXNojY9zalU-106" value="" style="verticalLabelPosition=bottom;html=1;verticalAlign=top;strokeWidth=1;align=center;outlineConnect=0;dashed=0;outlineConnect=0;shape=mxgraph.aws3d.ebs2;fillColor=#ECECEC;strokeColor=#5E5E5E;aspect=fixed;sketch=0;fontSize=5;" vertex="1" parent="1">
          <mxGeometry x="440.00000000000006" y="214.43" width="23.86" height="15.57" as="geometry" />
        </mxCell>
        <mxCell id="MaGBBsOUIaXNojY9zalU-107" value="" style="verticalLabelPosition=bottom;html=1;verticalAlign=top;strokeWidth=1;align=center;outlineConnect=0;dashed=0;outlineConnect=0;shape=mxgraph.aws3d.ebs2;fillColor=#ECECEC;strokeColor=#5E5E5E;aspect=fixed;sketch=0;fontSize=5;" vertex="1" parent="1">
          <mxGeometry x="463.86" y="205" width="22.99" height="15" as="geometry" />
        </mxCell>
        <mxCell id="MaGBBsOUIaXNojY9zalU-108" value="" style="verticalLabelPosition=bottom;html=1;verticalAlign=top;strokeWidth=1;align=center;outlineConnect=0;dashed=0;outlineConnect=0;shape=mxgraph.aws3d.ebs2;fillColor=#ECECEC;strokeColor=#5E5E5E;aspect=fixed;sketch=0;fontSize=5;" vertex="1" parent="1">
          <mxGeometry x="480" y="195.92" width="16.3" height="10.63" as="geometry" />
        </mxCell>
        <mxCell id="MaGBBsOUIaXNojY9zalU-109" value="" style="verticalLabelPosition=bottom;html=1;verticalAlign=top;strokeWidth=1;align=center;outlineConnect=0;dashed=0;outlineConnect=0;shape=mxgraph.aws3d.ebs2;fillColor=#ECECEC;strokeColor=#5E5E5E;aspect=fixed;sketch=0;fontSize=5;" vertex="1" parent="1">
          <mxGeometry x="516.14" y="165.04" width="23.86" height="15.57" as="geometry" />
        </mxCell>
        <mxCell id="MaGBBsOUIaXNojY9zalU-110" value="" style="verticalLabelPosition=bottom;html=1;verticalAlign=top;strokeWidth=1;align=center;outlineConnect=0;dashed=0;outlineConnect=0;shape=mxgraph.aws3d.ebs2;fillColor=#ECECEC;strokeColor=#5E5E5E;aspect=fixed;sketch=0;fontSize=5;" vertex="1" parent="1">
          <mxGeometry x="540" y="156.07" width="14.4" height="9.4" as="geometry" />
        </mxCell>
        <mxCell id="MaGBBsOUIaXNojY9zalU-111" value="" style="verticalLabelPosition=bottom;html=1;verticalAlign=top;strokeWidth=1;align=center;outlineConnect=0;dashed=0;outlineConnect=0;shape=mxgraph.aws3d.ebs2;fillColor=#ECECEC;strokeColor=#5E5E5E;aspect=fixed;sketch=0;fontSize=5;" vertex="1" parent="1">
          <mxGeometry x="563.9999999999999" y="142.3" width="19.1" height="12.46" as="geometry" />
        </mxCell>
        <mxCell id="MaGBBsOUIaXNojY9zalU-125" value="识别服务" style="text;html=1;align=center;verticalAlign=top;resizable=0;points=[];autosize=1;fontSize=5;fontStyle=0" vertex="1" parent="1">
          <mxGeometry x="208.35" y="274.78000000000003" width="60" height="10" as="geometry" />
        </mxCell>
        <mxCell id="MaGBBsOUIaXNojY9zalU-127" value="语义服务" style="text;html=1;align=center;verticalAlign=middle;resizable=0;points=[];autosize=1;fontSize=5;" vertex="1" parent="1">
          <mxGeometry x="286.9" y="225.57" width="60" height="10" as="geometry" />
        </mxCell>
        <mxCell id="MaGBBsOUIaXNojY9zalU-128" value="合成服务" style="text;html=1;align=center;verticalAlign=middle;resizable=0;points=[];autosize=1;fontSize=5;" vertex="1" parent="1">
          <mxGeometry x="366" y="177.56" width="60" height="10" as="geometry" />
        </mxCell>
        <mxCell id="MaGBBsOUIaXNojY9zalU-129" value="OCR服务" style="text;html=1;align=center;verticalAlign=middle;resizable=0;points=[];autosize=1;fontSize=5;" vertex="1" parent="1">
          <mxGeometry x="440.36" y="132.3" width="70" height="10" as="geometry" />
        </mxCell>
        <mxCell id="MaGBBsOUIaXNojY9zalU-130" value="LB（sidecar）" style="text;html=1;align=center;verticalAlign=middle;resizable=0;points=[];autosize=1;fontSize=5;" vertex="1" parent="1">
          <mxGeometry x="306" y="119.64000000000001" width="90" height="10" as="geometry" />
        </mxCell>
        <mxCell id="MaGBBsOUIaXNojY9zalU-148" value="&lt;font style=&quot;font-size: 25px&quot;&gt;AI能力平台6.1服务集群&lt;/font&gt;" style="text;html=1;align=center;verticalAlign=middle;resizable=0;points=[];autosize=1;fontSize=5;fontColor=#02020A;fontStyle=1" vertex="1" parent="1">
          <mxGeometry x="398.8" y="-160.00000000000003" width="280" height="20" as="geometry" />
        </mxCell>
        <mxCell id="MaGBBsOUIaXNojY9zalU-149" value="" style="verticalLabelPosition=bottom;html=1;verticalAlign=top;strokeWidth=1;align=center;outlineConnect=0;dashed=0;outlineConnect=0;shape=mxgraph.aws3d.application_server;fillColor=#ECECEC;strokeColor=#5E5E5E;aspect=fixed;sketch=0;fontSize=5;fontColor=#02020A;" vertex="1" parent="1">
          <mxGeometry x="416.13999999999993" y="2.4499999999999993" width="36.43" height="36.73" as="geometry" />
        </mxCell>
        <mxCell id="MaGBBsOUIaXNojY9zalU-150" value="后管平台" style="text;html=1;align=center;verticalAlign=middle;resizable=0;points=[];autosize=1;fontSize=5;fontColor=#02020A;" vertex="1" parent="1">
          <mxGeometry x="366" y="50" width="60" height="10" as="geometry" />
        </mxCell>
        <mxCell id="MaGBBsOUIaXNojY9zalU-155" style="edgeStyle=orthogonalEdgeStyle;curved=1;sketch=0;jumpStyle=arc;jumpSize=15;orthogonalLoop=1;jettySize=auto;html=1;shadow=0;strokeColor=#02020A;fontSize=5;fontColor=#02020A;" edge="1" parent="1" source="MaGBBsOUIaXNojY9zalU-153" target="MaGBBsOUIaXNojY9zalU-88">
          <mxGeometry relative="1" as="geometry" />
        </mxCell>
        <mxCell id="MaGBBsOUIaXNojY9zalU-186" style="edgeStyle=orthogonalEdgeStyle;rounded=1;sketch=0;jumpStyle=arc;jumpSize=15;orthogonalLoop=1;jettySize=auto;html=1;shadow=0;strokeColor=#02020A;fontSize=5;fontColor=#02020A;" edge="1" parent="1" source="MaGBBsOUIaXNojY9zalU-153" target="MaGBBsOUIaXNojY9zalU-161">
          <mxGeometry relative="1" as="geometry">
            <Array as="points">
              <mxPoint x="260" y="74" />
              <mxPoint x="260" y="-129" />
            </Array>
          </mxGeometry>
        </mxCell>
        <mxCell id="MaGBBsOUIaXNojY9zalU-187" style="edgeStyle=orthogonalEdgeStyle;rounded=1;sketch=0;jumpStyle=arc;jumpSize=15;orthogonalLoop=1;jettySize=auto;html=1;shadow=0;strokeColor=#02020A;fontSize=5;fontColor=#02020A;" edge="1" parent="1" source="MaGBBsOUIaXNojY9zalU-153">
          <mxGeometry relative="1" as="geometry">
            <mxPoint x="277" y="-156" as="targetPoint" />
          </mxGeometry>
        </mxCell>
        <mxCell id="MaGBBsOUIaXNojY9zalU-188" style="edgeStyle=orthogonalEdgeStyle;rounded=1;sketch=0;jumpStyle=arc;jumpSize=15;orthogonalLoop=1;jettySize=auto;html=1;entryX=0.471;entryY=1.082;entryDx=0;entryDy=0;entryPerimeter=0;shadow=0;strokeColor=#02020A;fontSize=5;fontColor=#02020A;" edge="1" parent="1" source="MaGBBsOUIaXNojY9zalU-153" target="MaGBBsOUIaXNojY9zalU-162">
          <mxGeometry relative="1" as="geometry" />
        </mxCell>
        <mxCell id="MaGBBsOUIaXNojY9zalU-153" value="" style="verticalLabelPosition=bottom;html=1;verticalAlign=top;strokeWidth=1;align=center;outlineConnect=0;dashed=0;outlineConnect=0;shape=mxgraph.aws3d.application_server;fillColor=#ECECEC;strokeColor=#5E5E5E;aspect=fixed;sketch=0;fontSize=5;fontColor=#02020A;" vertex="1" parent="1">
          <mxGeometry x="284.4" y="39.18000000000001" width="36" height="36.29" as="geometry" />
        </mxCell>
        <mxCell id="MaGBBsOUIaXNojY9zalU-154" value="能力服务" style="text;html=1;align=center;verticalAlign=middle;resizable=0;points=[];autosize=1;fontSize=5;fontColor=#02020A;" vertex="1" parent="1">
          <mxGeometry x="250" y="101.1" width="60" height="10" as="geometry" />
        </mxCell>
        <mxCell id="MaGBBsOUIaXNojY9zalU-157" style="edgeStyle=orthogonalEdgeStyle;curved=1;sketch=0;jumpStyle=arc;jumpSize=15;orthogonalLoop=1;jettySize=auto;html=1;shadow=0;strokeColor=#02020A;fontSize=5;fontColor=#02020A;" edge="1" parent="1" source="MaGBBsOUIaXNojY9zalU-156" target="MaGBBsOUIaXNojY9zalU-153">
          <mxGeometry relative="1" as="geometry" />
        </mxCell>
        <mxCell id="MaGBBsOUIaXNojY9zalU-156" value="" style="verticalLabelPosition=bottom;html=1;verticalAlign=top;strokeWidth=1;align=center;outlineConnect=0;dashed=0;outlineConnect=0;shape=mxgraph.aws3d.elasticMapReduce;fillColor=#ECECEC;strokeColor=#5E5E5E;aspect=fixed;sketch=0;fontSize=5;" vertex="1" parent="1">
          <mxGeometry x="228.01000000000002" y="84.21" width="21.99" height="23.77" as="geometry" />
        </mxCell>
        <mxCell id="MaGBBsOUIaXNojY9zalU-158" value="LB（sidecar）" style="text;html=1;align=center;verticalAlign=middle;resizable=0;points=[];autosize=1;fontSize=5;" vertex="1" parent="1">
          <mxGeometry x="190" y="111.10000000000002" width="90" height="10" as="geometry" />
        </mxCell>
        <mxCell id="MaGBBsOUIaXNojY9zalU-159" value="" style="verticalLabelPosition=bottom;html=1;verticalAlign=top;strokeWidth=1;align=center;outlineConnect=0;dashed=0;outlineConnect=0;shape=mxgraph.aws3d.elasticLoadBalancing;fillColor=#ECECEC;aspect=fixed;sketch=0;fontSize=5;fontColor=#02020A;strokeColor=#02020A;" vertex="1" parent="1">
          <mxGeometry x="240" y="-229.36" width="61.94" height="59.36" as="geometry" />
        </mxCell>
        <mxCell id="MaGBBsOUIaXNojY9zalU-160" value="" style="shape=image;html=1;verticalAlign=top;verticalLabelPosition=bottom;labelBackgroundColor=#ffffff;imageAspect=0;aspect=fixed;image=https://cdn2.iconfinder.com/data/icons/amazon-aws-stencils/100/Database_copy_Amazon_RDS_MySQL_DB_Instance-128.png;sketch=0;fillColor=#FF3333;gradientColor=none;fontSize=5;fontColor=#02020A;align=center;" vertex="1" parent="1">
          <mxGeometry x="310" y="-268.9" width="81.9" height="81.9" as="geometry" />
        </mxCell>
        <mxCell id="MaGBBsOUIaXNojY9zalU-161" value="" style="verticalLabelPosition=bottom;html=1;verticalAlign=top;strokeWidth=1;align=center;outlineConnect=0;dashed=0;outlineConnect=0;shape=mxgraph.aws3d.simpleDb2;strokeColor=#5E5E5E;aspect=fixed;sketch=0;fontSize=5;fontColor=#02020A;fillColor=#ECECEC;" vertex="1" parent="1">
          <mxGeometry x="150" y="-189.92" width="66.01" height="70.05" as="geometry" />
        </mxCell>
        <mxCell id="MaGBBsOUIaXNojY9zalU-162" value="mysql集群" style="text;html=1;align=center;verticalAlign=middle;resizable=0;points=[];autosize=1;fontSize=5;fontColor=#02020A;" vertex="1" parent="1">
          <mxGeometry x="320.4" y="-196.01999999999998" width="70" height="10" as="geometry" />
        </mxCell>
        <mxCell id="MaGBBsOUIaXNojY9zalU-163" value="ES集群" style="text;html=1;align=center;verticalAlign=middle;resizable=0;points=[];autosize=1;fontSize=5;fontColor=#02020A;" vertex="1" parent="1">
          <mxGeometry x="235.8" y="-165.16" width="60" height="10" as="geometry" />
        </mxCell>
        <mxCell id="MaGBBsOUIaXNojY9zalU-164" value="redis集群" style="text;html=1;align=center;verticalAlign=middle;resizable=0;points=[];autosize=1;fontSize=5;fontColor=#02020A;" vertex="1" parent="1">
          <mxGeometry x="158.01000000000002" y="-110.66" width="70" height="10" as="geometry" />
        </mxCell>
        <mxCell id="MaGBBsOUIaXNojY9zalU-181" style="edgeStyle=orthogonalEdgeStyle;sketch=0;jumpStyle=arc;jumpSize=15;orthogonalLoop=1;jettySize=auto;html=1;shadow=0;strokeColor=#02020A;fontSize=5;fontColor=#02020A;rounded=1;" edge="1" parent="1" source="MaGBBsOUIaXNojY9zalU-165" target="MaGBBsOUIaXNojY9zalU-171">
          <mxGeometry relative="1" as="geometry">
            <Array as="points">
              <mxPoint x="-73" y="40" />
            </Array>
          </mxGeometry>
        </mxCell>
        <mxCell id="MaGBBsOUIaXNojY9zalU-165" value="Nginx" style="verticalLabelPosition=bottom;html=1;verticalAlign=top;strokeWidth=1;align=center;outlineConnect=0;dashed=0;outlineConnect=0;shape=mxgraph.aws3d.vpcGateway;fillColor=#ECECEC;strokeColor=#5E5E5E;aspect=fixed;sketch=0;fontSize=5;fontColor=#02020A;" vertex="1" parent="1">
          <mxGeometry x="-240" y="5.23" width="76.7" height="67.56" as="geometry" />
        </mxCell>
        <mxCell id="MaGBBsOUIaXNojY9zalU-185" style="edgeStyle=orthogonalEdgeStyle;rounded=1;sketch=0;jumpStyle=arc;jumpSize=15;orthogonalLoop=1;jettySize=auto;html=1;shadow=0;strokeColor=#02020A;fontSize=5;fontColor=#02020A;" edge="1" parent="1" source="MaGBBsOUIaXNojY9zalU-166" target="MaGBBsOUIaXNojY9zalU-156">
          <mxGeometry relative="1" as="geometry">
            <Array as="points">
              <mxPoint x="-22" y="-40" />
              <mxPoint x="239" y="-40" />
            </Array>
          </mxGeometry>
        </mxCell>
        <mxCell id="MaGBBsOUIaXNojY9zalU-166" value="授权中心" style="verticalLabelPosition=bottom;html=1;verticalAlign=top;strokeWidth=1;align=center;outlineConnect=0;dashed=0;outlineConnect=0;shape=mxgraph.aws3d.secureConnection;fillColor=#000000;strokeColor=#ffffff;aspect=fixed;sketch=0;fontSize=5;fontColor=#02020A;" vertex="1" parent="1">
          <mxGeometry x="-30" y="-110.66000000000001" width="56.99999999999999" height="34" as="geometry" />
        </mxCell>
        <mxCell id="MaGBBsOUIaXNojY9zalU-167" value="Oauth2.0&lt;br&gt;认证中心" style="verticalLabelPosition=bottom;html=1;verticalAlign=top;strokeWidth=1;align=center;outlineConnect=0;dashed=0;outlineConnect=0;shape=mxgraph.aws3d.securityTokenService;fillColor=#ECECEC;strokeColor=#5E5E5E;aspect=fixed;sketch=0;fontSize=5;fontColor=#02020A;" vertex="1" parent="1">
          <mxGeometry x="-200" y="-129.99999999999997" width="50" height="53.34" as="geometry" />
        </mxCell>
        <mxCell id="MaGBBsOUIaXNojY9zalU-182" style="edgeStyle=orthogonalEdgeStyle;rounded=1;sketch=0;jumpStyle=arc;jumpSize=15;orthogonalLoop=1;jettySize=auto;html=1;shadow=0;strokeColor=#02020A;fontSize=5;fontColor=#02020A;" edge="1" parent="1" source="MaGBBsOUIaXNojY9zalU-171" target="MaGBBsOUIaXNojY9zalU-167">
          <mxGeometry relative="1" as="geometry">
            <Array as="points">
              <mxPoint x="-140" y="-20" />
              <mxPoint x="-140" y="-103" />
            </Array>
          </mxGeometry>
        </mxCell>
        <mxCell id="MaGBBsOUIaXNojY9zalU-183" style="edgeStyle=orthogonalEdgeStyle;rounded=1;sketch=0;jumpStyle=arc;jumpSize=15;orthogonalLoop=1;jettySize=auto;html=1;shadow=0;strokeColor=#02020A;fontSize=5;fontColor=#02020A;" edge="1" parent="1" source="MaGBBsOUIaXNojY9zalU-171" target="MaGBBsOUIaXNojY9zalU-156">
          <mxGeometry relative="1" as="geometry">
            <Array as="points">
              <mxPoint x="238" y="-30" />
            </Array>
          </mxGeometry>
        </mxCell>
        <mxCell id="MaGBBsOUIaXNojY9zalU-184" style="edgeStyle=orthogonalEdgeStyle;rounded=1;sketch=0;jumpStyle=arc;jumpSize=15;orthogonalLoop=1;jettySize=auto;html=1;shadow=0;strokeColor=#02020A;fontSize=5;fontColor=#02020A;" edge="1" parent="1" source="MaGBBsOUIaXNojY9zalU-171" target="MaGBBsOUIaXNojY9zalU-179">
          <mxGeometry relative="1" as="geometry" />
        </mxCell>
        <mxCell id="MaGBBsOUIaXNojY9zalU-189" style="edgeStyle=orthogonalEdgeStyle;rounded=1;sketch=0;jumpStyle=arc;jumpSize=15;orthogonalLoop=1;jettySize=auto;html=1;shadow=0;strokeColor=#02020A;fontSize=5;fontColor=#02020A;" edge="1" parent="1" source="MaGBBsOUIaXNojY9zalU-171" target="MaGBBsOUIaXNojY9zalU-174">
          <mxGeometry relative="1" as="geometry" />
        </mxCell>
        <mxCell id="MaGBBsOUIaXNojY9zalU-171" value="zuui 网关" style="verticalLabelPosition=bottom;html=1;verticalAlign=top;strokeWidth=1;align=center;outlineConnect=0;dashed=0;outlineConnect=0;shape=mxgraph.aws3d.internetGateway;fillColor=#ECECEC;strokeColor=#5E5E5E;aspect=fixed;sketch=0;fontSize=5;fontColor=#02020A;" vertex="1" parent="1">
          <mxGeometry x="-96.7" y="-41" width="46.7" height="41.14" as="geometry" />
        </mxCell>
        <mxCell id="MaGBBsOUIaXNojY9zalU-190" style="edgeStyle=orthogonalEdgeStyle;rounded=1;sketch=0;jumpStyle=arc;jumpSize=15;orthogonalLoop=1;jettySize=auto;html=1;entryX=0.288;entryY=1.006;entryDx=0;entryDy=0;entryPerimeter=0;shadow=0;strokeColor=#02020A;fontSize=5;fontColor=#02020A;" edge="1" parent="1" source="MaGBBsOUIaXNojY9zalU-174" target="MaGBBsOUIaXNojY9zalU-158">
          <mxGeometry relative="1" as="geometry" />
        </mxCell>
        <mxCell id="MaGBBsOUIaXNojY9zalU-174" value="平台中心" style="verticalLabelPosition=bottom;html=1;verticalAlign=top;strokeWidth=1;align=center;outlineConnect=0;dashed=0;outlineConnect=0;shape=mxgraph.aws3d.sqs;fillColor=#ECECEC;strokeColor=#5E5E5E;aspect=fixed;sketch=0;fontSize=5;fontColor=#02020A;" vertex="1" parent="1">
          <mxGeometry x="14.08" y="9.600000000000003" width="41" height="47.41" as="geometry" />
        </mxCell>
        <mxCell id="MaGBBsOUIaXNojY9zalU-175" value="" style="verticalLabelPosition=bottom;html=1;verticalAlign=top;strokeWidth=1;align=center;outlineConnect=0;dashed=0;outlineConnect=0;shape=mxgraph.aws3d.dashedArrowlessEdge;fillColor=#000000;aspect=fixed;sketch=0;fontSize=5;fontColor=#02020A;" vertex="1" parent="1">
          <mxGeometry x="-300" y="-92.28" width="355.08" height="202.28" as="geometry" />
        </mxCell>
        <mxCell id="MaGBBsOUIaXNojY9zalU-176" value="" style="verticalLabelPosition=bottom;html=1;verticalAlign=top;strokeWidth=1;align=center;outlineConnect=0;dashed=0;outlineConnect=0;shape=mxgraph.aws3d.dashedArrowlessEdge;fillColor=#000000;aspect=fixed;sketch=0;fontSize=5;fontColor=#02020A;flipH=1;" vertex="1" parent="1">
          <mxGeometry x="-300" y="-220" width="216.4" height="123.27" as="geometry" />
        </mxCell>
        <mxCell id="MaGBBsOUIaXNojY9zalU-177" value="" style="verticalLabelPosition=bottom;html=1;verticalAlign=top;strokeWidth=1;align=center;outlineConnect=0;dashed=0;outlineConnect=0;shape=mxgraph.aws3d.dashedArrowlessEdge;fillColor=#000000;aspect=fixed;sketch=0;fontSize=5;fontColor=#02020A;flipH=1;rotation=-4;" vertex="1" parent="1">
          <mxGeometry x="53.16" y="-20.2" width="210.67" height="120" as="geometry" />
        </mxCell>
        <mxCell id="MaGBBsOUIaXNojY9zalU-178" value="" style="verticalLabelPosition=bottom;html=1;verticalAlign=top;strokeWidth=1;align=center;outlineConnect=0;dashed=0;outlineConnect=0;shape=mxgraph.aws3d.dashedArrowlessEdge;fillColor=#000000;aspect=fixed;sketch=0;fontSize=5;fontColor=#02020A;" vertex="1" parent="1">
          <mxGeometry x="-70.8" y="-220" width="333.58" height="190" as="geometry" />
        </mxCell>
        <mxCell id="MaGBBsOUIaXNojY9zalU-179" value="consul服务发现配置/中心" style="verticalLabelPosition=bottom;html=1;verticalAlign=top;strokeWidth=1;align=center;outlineConnect=0;dashed=0;outlineConnect=0;shape=mxgraph.aws3d.application_server;fillColor=#ECECEC;strokeColor=#5E5E5E;aspect=fixed;sketch=0;fontSize=5;fontColor=#02020A;" vertex="1" parent="1">
          <mxGeometry x="-90" y="-180.32" width="40" height="40.32" as="geometry" />
        </mxCell>
        <mxCell id="MaGBBsOUIaXNojY9zalU-192" value="" style="verticalLabelPosition=bottom;html=1;verticalAlign=top;strokeWidth=1;align=center;outlineConnect=0;dashed=0;outlineConnect=0;shape=mxgraph.aws3d.dashedArrowlessEdge;fillColor=#000000;aspect=fixed;sketch=0;fontSize=5;fontColor=#02020A;" vertex="1" parent="1">
          <mxGeometry x="-10" y="185.65" width="288.52" height="164.35" as="geometry" />
        </mxCell>
        <mxCell id="MaGBBsOUIaXNojY9zalU-193" value="" style="verticalLabelPosition=bottom;html=1;verticalAlign=top;strokeWidth=1;align=center;outlineConnect=0;dashed=0;outlineConnect=0;shape=mxgraph.aws3d.dashedArrowlessEdge;fillColor=#000000;aspect=fixed;sketch=0;fontSize=5;fontColor=#02020A;flipH=1;" vertex="1" parent="1">
          <mxGeometry x="292" y="121.1" width="403.78" height="230" as="geometry" />
        </mxCell>
        <mxCell id="MaGBBsOUIaXNojY9zalU-197" value="" style="verticalLabelPosition=bottom;html=1;verticalAlign=top;strokeWidth=1;align=center;outlineConnect=0;dashed=0;outlineConnect=0;shape=mxgraph.aws3d.dashedArrowlessEdge;fillColor=#000000;aspect=fixed;sketch=0;fontSize=5;fontColor=#02020A;" vertex="1" parent="1">
          <mxGeometry x="400" y="-53.4" width="304.44" height="173.4" as="geometry" />
        </mxCell>
        <mxCell id="MaGBBsOUIaXNojY9zalU-199" value="" style="verticalLabelPosition=bottom;html=1;verticalAlign=top;strokeWidth=1;align=center;outlineConnect=0;dashed=0;outlineConnect=0;shape=mxgraph.aws3d.dashedArrowlessEdge;fillColor=#000000;aspect=fixed;sketch=0;fontSize=5;fontColor=#02020A;flipH=1;" vertex="1" parent="1">
          <mxGeometry x="-10" y="-50" width="404.67" height="230.5" as="geometry" />
        </mxCell>
      </root>
    </mxGraphModel>
  </diagram>
</mxfile>
